<svg xmlns="http://www.w3.org/2000/svg" version="1.1" xmlns:xlink="http://www.w3.org/1999/xlink" xmlns:svgjs="http://svgjs.dev/svgjs" width="1000" height="90" viewBox="0 0 1000 90"><g transform="matrix(1,0,0,1,-0.6060310153465025,0.04532835773368049)"><svg viewBox="0 0 396 36" data-background-color="#ffffff" preserveAspectRatio="xMidYMid meet" height="90" width="1000" xmlns="http://www.w3.org/2000/svg" xmlns:xlink="http://www.w3.org/1999/xlink"><g id="tight-bounds" transform="matrix(1,0,0,1,0.23999812584685287,-0.018131343093472196)"><svg viewBox="0 0 395.52 36.03626268618695" height="36.03626268618695" width="395.52"><g><svg viewBox="0 0 514.8983595874568 46.91295646940822" height="36.03626268618695" width="395.52"><g><rect width="4.209610774708767" height="46.91295646940822" x="104.14882531874605" y="0" fill="#ffffff" opacity="1" stroke-width="0" stroke="transparent" fill-opacity="1" class="rect-o-0" data-fill-palette-color="primary" rx="1%" id="o-0" data-palette-color="#ffffff"></rect></g><g transform="matrix(1,0,0,1,119.37835958745683,0.1166988966900675)"><svg viewBox="0 0 395.52 46.67955867602809" height="46.67955867602809" width="395.52"><g id="textblocktransform"><svg viewBox="0 0 395.52 46.67955867602809" height="46.67955867602809" width="395.52" id="textblock"><g><svg viewBox="0 0 395.52 46.67955867602809" height="46.67955867602809" width="395.52"><g transform="matrix(1,0,0,1,0,0)"><svg width="395.52" viewBox="1.2000000476837158 -34.29999923706055 299.0799865722656 35.29999923706055" height="46.67955867602809" data-palette-color="#ffffff"><path d="M24.7-10.8L29.65-10.4Q29.75-5.5 29.05 0L29.05 0 1.5 0 1.2-1.6Q3.1-2.9 5.45-3.95L5.45-3.95 5.45-29.9 1.7-30.45 1.75-33.1 29.4-33.1 29.45-31.95Q29.45-27.35 28.5-23L28.5-23 23.5-23 22.6-28.1 14.5-28.65 14.5-18.55 24.95-19.4 24.95-14 14.5-14.45 14.5-4.65 22.9-5.3 24.7-10.8ZM50.75-33.5L50.75-33.5Q56.25-33.5 60.2-31.1 64.15-28.7 66.17-24.88 68.2-21.05 68.2-16.85L68.2-16.85Q68.2-9.5 63.5-4.83 58.8-0.15 51.1 0L51.1 0 33.65 0 33.35-1.6Q35.25-2.9 37.6-3.95L37.6-3.95 37.6-29.95 34.05-30.45 34.1-33.1Q41.65-33.5 50.75-33.5ZM50-4.6L50-4.6Q53.95-4.6 56.35-7.93 58.75-11.25 58.75-16.4L58.75-16.4Q58.75-20.35 57.17-23.9 55.6-27.45 52.95-29.15L52.95-29.15 46.65-28.4 46.65-5.1Q48.35-4.6 50-4.6ZM105.84-33.1L106.15-31.5Q104.34-30.2 101.9-29.15L101.9-29.15 101.9-14.3Q101.84-6.2 98.17-2.6 94.5 1 88.45 1L88.45 1Q81.4 1 77.27-3.08 73.15-7.15 72.95-14.3L72.95-14.3 72.95-29.85 69.09-30.45 69.15-33.1 85.95-33.1 86.25-31.5Q84.45-30.2 82-29.15L82-29.15 82-13.05Q82-8.5 84-6.25 86-4 89.34-4L89.34-4Q91.8-4 93.5-5.25L93.5-5.25Q95.59-7.55 95.65-14.2L95.65-14.2 95.65-29.8 91.5-30.45 91.55-33.1 105.84-33.1ZM110.94-11.1L108.14-15.6 109.19-17.7 124.39-17.7 127.19-13.2 126.14-11.1 110.94-11.1ZM160.44-12.3L160.44-10.45Q160.44-3.9 159.74 0L159.74 0 131.14 0 130.84-1.6Q132.74-2.9 135.09-3.95L135.09-3.95 135.09-29.85 131.24-30.45 131.29-33.1 148.09-33.1 148.39-31.5Q146.59-30.2 144.14-29.15L144.14-29.15 144.14-4.65 153.04-5.5 155.29-12.75 160.44-12.3ZM185.29-10.8L190.24-10.4Q190.34-5.5 189.64 0L189.64 0 162.09 0 161.79-1.6Q163.69-2.9 166.04-3.95L166.04-3.95 166.04-29.9 162.29-30.45 162.34-33.1 189.99-33.1 190.04-31.95Q190.04-27.35 189.09-23L189.09-23 184.09-23 183.19-28.1 175.09-28.65 175.09-18.55 185.54-19.4 185.54-14 175.09-14.45 175.09-4.65 183.49-5.3 185.29-10.8ZM225.24-3.2L228.84-2.65 228.79 0 211.84 0 211.54-1.6Q212.94-2.6 215.54-3.85L215.54-3.85 213.79-8.6 202.79-8.6 200.79-3.35 205.09-2.65 205.04 0 191.04 0 190.74-1.6Q192.49-2.8 194.94-3.9L194.94-3.9 205.64-30.25 204.89-32.3 212.69-34.3 225.24-3.2ZM204.34-12.8L212.19-12.8 208.29-23.3 204.34-12.8ZM259.28-3.1L262.33-2.65 262.28 0 251.08 0 244.48-12.6 241.18-12.55 241.18-3.3 245.33-2.65 245.28 0 228.18 0 227.88-1.6Q229.78-2.9 232.13-3.95L232.13-3.95 232.13-29.9 228.38-30.45 228.43-33.1 245.38-33.5Q251.38-33.5 255.26-30.53 259.13-27.55 259.13-23.05L259.13-23.05Q259.13-20.15 257.38-17.68 255.63-15.2 252.63-13.85L252.63-13.85 259.28-3.1ZM241.18-28.4L241.18-17.2Q242.58-16.85 243.98-16.85L243.98-16.85Q249.88-16.85 249.88-22.9L249.88-22.9Q249.88-27 247.33-29.15L247.33-29.15 241.18-28.4ZM299.98-33.1L300.28-31.5Q298.48-30.25 296.28-29.3L296.28-29.3 296.03 0 288.03 0.65 273.08-21.8 273.78-15.75 273.78-3.35 278.18-2.65 278.13 0 263.58 0 263.28-1.6Q265.18-2.9 267.53-3.95L267.53-3.95 267.53-29.8 263.88-30.45 263.93-33.1 276.18-33.1 276.13-33.05 290.78-10.55 290.08-16.8 290.08-29.65 285.13-30.45 285.18-33.1 299.98-33.1Z" opacity="1" transform="matrix(1,0,0,1,0,0)" fill="#ffffff" class="wordmark-text-0" data-fill-palette-color="primary" id="text-0"></path></svg></g></svg></g></svg></g></svg></g><g transform="matrix(1,0,0,1,0,0.1166988966900675)"><svg viewBox="0 0 93.12890182474405 46.67955867602809" height="46.67955867602809" width="93.12890182474405"><g><svg xmlns="http://www.w3.org/2000/svg" xmlns:xlink="http://www.w3.org/1999/xlink" xml:space="preserve" style="shape-rendering:geometricPrecision;text-rendering:geometricPrecision;image-rendering:optimizeQuality;" viewBox="0.0000020265579223632812 0.0000027120113372802734 14.727499008178711 7.38195276260376" x="0" y="0" fill-rule="evenodd" clip-rule="evenodd" width="93.12890182474405" height="46.67955867602809" class="icon-icon-0" data-fill-palette-color="accent" id="icon-0"><g fill="#0eb582" data-fill-palette-color="accent"><path class="" d="M1.757 3.091c-0.313 0.444-0.296 1.331-0.417 1.95-0.153 0.784-0.711 1.203-1.34 1.534 0.188-0.771 0.348-1.542 0.412-2.313 0.078-0.953-0.06-0.891 0.767-1.575 1.159-0.961 3.04-1.741 5.848-2.29 2.456-0.406 5.049-0.453 7.701-0.351-0.89 1.809-3.733 1.961-7.203 1.581-1.811 0.02-3.495-0.488-5.768 1.464z m8.33 2.781c-3.895 2.038-7.803-2.284-9.165 0.688 2.104-1.831 5.079 3.183 9.165-0.688z m2.489-2.547c-4.49 2.72-9.502-0.792-10.907 1.859 3.412-1.235 7.765 2.753 10.907-1.859z m0.834-1.478c-3.944 1.761-10.043-1.402-11.565 2.239 3.106-1.808 8.446 1.438 11.565-2.239z" fill="#0eb582" data-fill-palette-color="accent"></path></g></svg></g></svg></g></svg></g><defs></defs></svg><rect width="395.52" height="36.03626268618695" fill="none" stroke="none" visibility="hidden"></rect></g></svg></g></svg>