<svg xmlns="http://www.w3.org/2000/svg" version="1.1" xmlns:xlink="http://www.w3.org/1999/xlink" xmlns:svgjs="http://svgjs.dev/svgjs" width="1000" height="260" viewBox="0 0 1000 260"><g transform="matrix(1,0,0,1,-0.6060606060606233,0.23317209968504926)"><svg viewBox="0 0 396 103" data-background-color="#ffffff" preserveAspectRatio="xMidYMid meet" height="260" width="1000" xmlns="http://www.w3.org/2000/svg" xmlns:xlink="http://www.w3.org/1999/xlink"><g id="tight-bounds" transform="matrix(1,0,0,1,0.2400000000000091,-0.09237202410599821)"><svg viewBox="0 0 395.52 103.18474404821202" height="103.18474404821202" width="395.52"><g><svg viewBox="0 0 654.179208411138 170.66473043478263" height="103.18474404821202" width="395.52"><g><rect width="7.075525352431305" height="170.66473043478263" x="233.06136538218487" y="0" fill="#ffffff" opacity="1" stroke-width="0" stroke="transparent" fill-opacity="1" class="rect-s$-0" data-fill-palette-color="primary" rx="1%" id="s$-0" data-palette-color="#ffffff"></rect></g><g transform="matrix(1,0,0,1,258.6592084111379,0.42453913043478053)"><svg viewBox="0 0 395.52000000000004 169.81565217391307" height="169.81565217391307" width="395.52000000000004"><g id="textblocktransform"><svg viewBox="0 0 395.52000000000004 169.81565217391307" height="169.81565217391307" width="395.52000000000004" id="textblock"><g><svg viewBox="0 0 395.52000000000004 169.81565217391307" height="169.81565217391307" width="395.52000000000004"><g transform="matrix(1,0,0,1,0,0)"><svg width="395.52000000000004" viewBox="-1 -35.74999999999999 184 76" height="169.81565217391307" data-palette-color="#ffffff"><svg></svg><svg></svg><g class="undefined-text-0" data-fill-palette-color="primary" id="text-0"><path d="M15.25 0.5l-13.5-34.25-2.75-0.5v-0.75h6c1.767 0 3.217 0.4 4.35 1.2 1.133 0.8 1.933 1.817 2.4 3.05v0l7.55 19.25 4.4-12.9-3.7-9.35-2.75-0.5v-0.75h6c1.767 0 3.2 0.39 4.3 1.17 1.1 0.787 1.917 1.813 2.45 3.08v0l7.55 19.25 7.2-21.25-3.75-1.5v-0.75h9.25v0.75l-4 1.5-11.25 33.25h-1.5l-9-22.85-7.75 22.85zM51.75 0v-0.75l3-0.75v-32l-3-0.75v-0.75h26.75v9h-1.5c-0.633-0.5-1.183-1.133-1.65-1.9v0c-1.067-1.8-1.6-3.75-1.6-5.85v0h-10.75v15.75h5.75c0.233-1.267 0.667-2.45 1.3-3.55v0c0.267-0.5 0.583-0.983 0.95-1.45v0h1.5v11.25h-1.5c-0.367-0.467-0.683-0.95-0.95-1.45v0c-0.633-1.1-1.067-2.283-1.3-3.55v0h-5.75v15.5h11.75c0-2.1 0.533-4.05 1.6-5.85v0c0.467-0.767 1.017-1.4 1.65-1.9v0h1.5v9zM84 0v-0.75l3-0.75v-32l-3-0.75v-0.75h26.75v9h-1.5c-0.633-0.5-1.183-1.133-1.65-1.9v0c-1.067-1.8-1.6-3.75-1.6-5.85v0h-10.75v15.75h5.75c0.233-1.267 0.667-2.45 1.3-3.55v0c0.267-0.5 0.583-0.983 0.95-1.45v0h1.5v11.25h-1.5c-0.367-0.467-0.683-0.95-0.95-1.45v0c-0.633-1.1-1.067-2.283-1.3-3.55v0h-5.75v15.5h11.75c0-2.1 0.533-4.05 1.6-5.85v0c0.467-0.767 1.017-1.4 1.65-1.9v0h1.5v9zM116.25 0v-0.75l3-0.75v-32l-3-0.75v-0.75h13.25c5.667 0 9.75 0.857 12.25 2.57 2.5 1.72 3.75 4.113 3.75 7.18v0c0 2.067-0.55 3.74-1.65 5.02-1.1 1.287-2.517 2.247-4.25 2.88v0c-1.833 0.7-3.783 1.067-5.85 1.1v0 0.25c1.233 0.067 2.317 0.25 3.25 0.55v0c2.333 0.733 3.917 2.05 4.75 3.95v0l4.5 10 2.5 0.75v0.75h-7c-2.733 0-4.733-1.417-6-4.25v0l-5-11.25h-3.25v14l3.5 0.75v0.75zM127.5-16.75h2c2.333 0 4.167-0.733 5.5-2.2 1.333-1.467 2-3.567 2-6.3v0c0-2.733-0.667-4.833-2-6.3-1.333-1.467-3.167-2.2-5.5-2.2v0h-2zM166.75 0.75c-3.267 0-6.123-0.71-8.57-2.13-2.453-1.413-4.347-3.487-5.68-6.22-1.333-2.733-2-6.033-2-9.9v0c0-3.867 0.667-7.167 2-9.9 1.333-2.733 3.227-4.81 5.68-6.23 2.447-1.413 5.303-2.12 8.57-2.12v0c3.267 0 6.123 0.707 8.57 2.12 2.453 1.42 4.347 3.497 5.68 6.23 1.333 2.733 2 6.033 2 9.9v0c0 3.867-0.667 7.167-2 9.9-1.333 2.733-3.227 4.807-5.68 6.22-2.447 1.42-5.303 2.13-8.57 2.13zM166.75-0.25c1.3 0 2.51-0.55 3.63-1.65 1.113-1.1 2.037-2.933 2.77-5.5 0.733-2.567 1.1-5.933 1.1-10.1v0c0-4.167-0.367-7.533-1.1-10.1-0.733-2.567-1.657-4.4-2.77-5.5-1.12-1.1-2.33-1.65-3.63-1.65v0c-1.3 0-2.507 0.55-3.62 1.65-1.12 1.1-2.047 2.933-2.78 5.5-0.733 2.567-1.1 5.933-1.1 10.1v0c0 4.167 0.367 7.533 1.1 10.1 0.733 2.567 1.66 4.4 2.78 5.5 1.113 1.1 2.32 1.65 3.62 1.65z" fill="#ffffff" fill-rule="nonzero" stroke="none" stroke-width="1" stroke-linecap="butt" stroke-linejoin="miter" stroke-miterlimit="10" stroke-dasharray="" stroke-dashoffset="0" font-family="none" font-weight="none" font-size="none" text-anchor="none" style="mix-blend-mode: normal" data-fill-palette-color="primary" opacity="1"></path><path transform="translate(0,39.5)" d="M2.5 0v-0.75l3-0.75v-32l-3-0.75v-0.75h26.75v9h-1.5c-0.633-0.5-1.183-1.133-1.65-1.9v0c-1.067-1.8-1.6-3.75-1.6-5.85v0h-10.75v15.75h5.75c0.233-1.267 0.667-2.45 1.3-3.55v0c0.267-0.5 0.583-0.983 0.95-1.45v0h1.5v11.25h-1.5c-0.367-0.467-0.683-0.95-0.95-1.45v0c-0.633-1.1-1.067-2.283-1.3-3.55v0h-5.75v15.5h11.75c0-2.1 0.533-4.05 1.6-5.85v0c0.467-0.767 1.017-1.4 1.65-1.9v0h1.5v9zM34.75 0v-0.75l3-0.75v-32l-3-0.75v-0.75h12.75c5.967 0 10.543 1.533 13.73 4.6 3.18 3.067 4.77 7.367 4.77 12.9v0c0 5.533-1.59 9.833-4.77 12.9-3.187 3.067-7.763 4.6-13.73 4.6v0zM46-1.25h1.5c3.1 0 5.5-1.26 7.2-3.78 1.7-2.513 2.55-6.67 2.55-12.47v0c0-5.8-0.85-9.96-2.55-12.48-1.7-2.513-4.1-3.77-7.2-3.77v0h-1.5zM87.75 0.75c-4.933 0-8.667-1.16-11.2-3.48-2.533-2.313-3.8-5.57-3.8-9.77v0-21l-3-0.75v-0.75h14.25v0.75l-3 0.75v21c0 4.3 0.667 7.373 2 9.22 1.333 1.853 3.25 2.78 5.75 2.78v0c1.533 0 2.993-0.493 4.38-1.48 1.38-0.98 2.493-2.38 3.34-4.2 0.853-1.813 1.28-3.92 1.28-6.32v0-20.25l-4-1.5v-0.75h9.5v0.75l-4 1.5v20.25c0 2.7-0.5 5.05-1.5 7.05-1 2-2.367 3.533-4.1 4.6-1.733 1.067-3.7 1.6-5.9 1.6z" fill="#ffffff" fill-rule="nonzero" stroke="none" stroke-width="1" stroke-linecap="butt" stroke-linejoin="miter" stroke-miterlimit="10" stroke-dasharray="" stroke-dashoffset="0" font-family="none" font-weight="none" font-size="none" text-anchor="none" style="mix-blend-mode: normal" data-fill-palette-color="primary" opacity="1"></path></g></svg></g></svg></g></svg></g></svg></g><g transform="matrix(1,0,0,1,0,0.42453913043478053)"><svg viewBox="0 0 214.53904770566314 169.81565217391307" height="169.81565217391307" width="214.53904770566314"><g><svg xmlns="http://www.w3.org/2000/svg" xmlns:xlink="http://www.w3.org/1999/xlink" version="1.1" x="0" y="0" viewBox="20.000127845568713 31.254523820776384 60.00030316545666 47.4924761792236" enable-background="new 0 0 100 100" xml:space="preserve" height="169.81565217391307" width="214.53904770566314" class="icon-icon-0" data-fill-palette-color="accent" id="icon-0"><path d="M79.297 49.314L52.402 31.516c-0.348-0.233-0.778-0.314-1.19-0.228l-29.788 6.291c-0.602 0.126-1.074 0.595-1.207 1.196l-0.179 0.806c-0.142 0.634 0.123 1.291 0.666 1.649l12.472 8.254-0.721 3.258c-0.363 1.648 0.86 3.642 3.725 5.537 5.44 3.6 14.722 5.484 20.748 4.211 2.849-0.601 4.456-1.802 4.784-3.28l0.621-2.813 8.047-1.699c1.001 1.415 1.653 3.131 1.818 5.32-0.817 0.423-1.383 1.265-1.383 2.25 0 0.825 0.399 1.551 1.011 2.016-0.692 3.527-1.614 10.01 0.226 12.883 0.542 0.846 1.309 1.386 2.219 1.559 0.072 0.014 0.144 0.021 0.215 0.021 0.535 0 1.012-0.379 1.116-0.925 0.117-0.617-0.288-1.213-0.904-1.331-0.2-0.037-0.462-0.134-0.729-0.55-0.649-1.014-0.801-3.015-0.681-5.273 0.561 1.752 1.424 3.328 2.753 4.203 0.528 0.349 1.232 0.2 1.576-0.325 0.345-0.524 0.199-1.229-0.325-1.575-1.788-1.178-2.543-5.216-2.704-8.49 0.779-0.435 1.312-1.257 1.312-2.211 0-1.001-0.583-1.857-1.423-2.271-0.15-2.332-0.756-4.231-1.692-5.808l5.792-1.224c0.602-0.126 1.074-0.595 1.207-1.196l0.179-0.806C80.104 50.33 79.839 49.673 79.297 49.314zM48.465 43.157c0.024-0.206 0.233-0.374 0.622-0.456 0.773-0.163 1.971 0.08 2.67 0.544 0.351 0.23 0.51 0.475 0.484 0.681l0 0-0.114 0.563h-0.001c-0.025 0.205-0.234 0.372-0.621 0.454-0.775 0.164-1.97-0.079-2.67-0.542-0.351-0.232-0.51-0.476-0.485-0.681L48.465 43.157z" fill="#0eb582" data-fill-palette-color="accent"></path></svg></g></svg></g></svg></g><defs></defs></svg><rect width="395.52" height="103.18474404821202" fill="none" stroke="none" visibility="hidden"></rect></g></svg></g></svg>